<svg xmlns="http://www.w3.org/2000/svg" xmlns:xlink="http://www.w3.org/1999/xlink" width="527.09" height="142.912" viewBox="0 0 527.09 142.912">
  <defs>
    <clipPath id="clip-path">
      <path id="Polygon_131" data-name="Polygon 131" d="M74.618,0a9,9,0,0,1,7.84,4.58L104.009,42.8a9,9,0,0,1,0,8.84L82.458,89.87a9,9,0,0,1-7.84,4.58H31.883a9,9,0,0,1-7.84-4.58L2.492,51.645a9,9,0,0,1,0-8.84L24.043,4.58A9,9,0,0,1,31.883,0Z" transform="matrix(0.875, -0.485, 0.485, 0.875, 0, 51.633)" fill="#f9ba0d"/>
    </clipPath>
  </defs>
  <g id="Group_1547" data-name="Group 1547" transform="translate(-11845 -709.427)">
    <path id="Path_1478" data-name="Path 1478" d="M11.4-2.19A3,3,0,0,1,9.31-3.032a2.978,2.978,0,0,1-.915-2.306V-42.082a20.719,20.719,0,0,1,1.866-9.076A14,14,0,0,1,15.678-57.2a15.957,15.957,0,0,1,8.454-2.159,3.227,3.227,0,0,1,2.269.805,2.658,2.658,0,0,1,.878,2.049,2.577,2.577,0,0,1-.878,1.976,3.227,3.227,0,0,1-2.269.805,9.1,9.1,0,0,0-5.2,1.427,8.918,8.918,0,0,0-3.221,3.953,14.477,14.477,0,0,0-1.1,5.819V-5.338a3.116,3.116,0,0,1-.842,2.306A3.217,3.217,0,0,1,11.4-2.19ZM4.223-35.421a2.9,2.9,0,0,1-2.086-.732,2.509,2.509,0,0,1-.769-1.9A2.629,2.629,0,0,1,2.137-40a2.819,2.819,0,0,1,2.086-.769H22.961A2.819,2.819,0,0,1,25.047-40a2.629,2.629,0,0,1,.769,1.94,2.509,2.509,0,0,1-.769,1.9,2.9,2.9,0,0,1-2.086.732Zm45.967,33.6a20.663,20.663,0,0,1-10.5-2.635,19.214,19.214,0,0,1-7.21-7.246,20.718,20.718,0,0,1-2.635-10.467,20.864,20.864,0,0,1,2.635-10.54,19.214,19.214,0,0,1,7.21-7.246,20.663,20.663,0,0,1,10.5-2.635,20.318,20.318,0,0,1,10.394,2.635,19.3,19.3,0,0,1,7.173,7.246,21.413,21.413,0,0,1,2.708,10.54A20.718,20.718,0,0,1,67.83-11.706a19.214,19.214,0,0,1-7.21,7.246A20.517,20.517,0,0,1,50.189-1.824Zm0-5.636a14.113,14.113,0,0,0,7.32-1.9A13.267,13.267,0,0,0,62.523-14.6a15.725,15.725,0,0,0,1.793-7.576,15.939,15.939,0,0,0-1.793-7.612,13.2,13.2,0,0,0-5.014-5.27,14.113,14.113,0,0,0-7.32-1.9,14.113,14.113,0,0,0-7.32,1.9,13.722,13.722,0,0,0-5.087,5.27,15.434,15.434,0,0,0-1.866,7.612A15.228,15.228,0,0,0,37.783-14.6,13.794,13.794,0,0,0,42.87-9.363,14.113,14.113,0,0,0,50.189-7.46ZM99.67-1.824a20.663,20.663,0,0,1-10.5-2.635,19.214,19.214,0,0,1-7.21-7.246,20.718,20.718,0,0,1-2.635-10.467,20.864,20.864,0,0,1,2.635-10.54,19.214,19.214,0,0,1,7.21-7.246,20.663,20.663,0,0,1,10.5-2.635,20.318,20.318,0,0,1,10.394,2.635,19.3,19.3,0,0,1,7.173,7.246,21.413,21.413,0,0,1,2.708,10.54,20.718,20.718,0,0,1-2.635,10.467,19.214,19.214,0,0,1-7.21,7.246A20.517,20.517,0,0,1,99.67-1.824Zm0-5.636a14.113,14.113,0,0,0,7.32-1.9A13.267,13.267,0,0,0,112-14.6a15.725,15.725,0,0,0,1.793-7.576A15.939,15.939,0,0,0,112-29.785a13.2,13.2,0,0,0-5.014-5.27,14.113,14.113,0,0,0-7.32-1.9,14.113,14.113,0,0,0-7.32,1.9,13.722,13.722,0,0,0-5.087,5.27A15.434,15.434,0,0,0,85.4-22.173,15.228,15.228,0,0,0,87.263-14.6,13.794,13.794,0,0,0,92.35-9.363,14.113,14.113,0,0,0,99.67-7.46Zm49.48,5.636A20.351,20.351,0,0,1,138.756-4.5a19.679,19.679,0,0,1-7.283-7.283A20.5,20.5,0,0,1,128.8-22.246a21.036,21.036,0,0,1,2.562-10.394,19.369,19.369,0,0,1,6.954-7.283,18.771,18.771,0,0,1,9.955-2.672,18.094,18.094,0,0,1,8.527,2.013,18.658,18.658,0,0,1,6.331,5.307V-56.209a3.043,3.043,0,0,1,.878-2.306,3.144,3.144,0,0,1,2.269-.842,3.144,3.144,0,0,1,2.269.842,3.043,3.043,0,0,1,.878,2.306v34.182a21.118,21.118,0,0,1-2.818,10.284A19.934,19.934,0,0,1,159.4-4.5,19.816,19.816,0,0,1,149.15-1.824Zm0-5.636A13.77,13.77,0,0,0,156.4-9.4a13.794,13.794,0,0,0,5.05-5.27,15.47,15.47,0,0,0,1.83-7.576,15.528,15.528,0,0,0-1.83-7.539,13.46,13.46,0,0,0-5.05-5.27,13.973,13.973,0,0,0-7.246-1.9,13.973,13.973,0,0,0-7.246,1.9,13.991,13.991,0,0,0-5.124,5.27,15.052,15.052,0,0,0-1.9,7.539,15,15,0,0,0,1.9,7.576A14.352,14.352,0,0,0,141.9-9.4,13.77,13.77,0,0,0,149.15-7.46Zm37.623,5.27a3.071,3.071,0,0,1-2.269-.878,3.07,3.07,0,0,1-.878-2.269V-39.081a3.043,3.043,0,0,1,.878-2.306,3.144,3.144,0,0,1,2.269-.842,3.018,3.018,0,0,1,2.232.842,3.116,3.116,0,0,1,.842,2.306V-5.338A3.144,3.144,0,0,1,189-3.069,2.949,2.949,0,0,1,186.772-2.19ZM186.7-49.475a4.09,4.09,0,0,1-3-1.244,4.176,4.176,0,0,1-1.244-3.074,4,4,0,0,1,1.281-3.038,4.278,4.278,0,0,1,3.038-1.208,4.191,4.191,0,0,1,2.964,1.208,4,4,0,0,1,1.281,3.038,4.116,4.116,0,0,1-1.281,3.074A4.212,4.212,0,0,1,186.7-49.475Z" transform="translate(11984.101 806.667)" fill="#111010"/>
    <path id="Path_1477" data-name="Path 1477" d="M27.042-1.824A19.816,19.816,0,0,1,16.795-4.5a19.934,19.934,0,0,1-7.21-7.246A20.551,20.551,0,0,1,6.84-22.026V-56.209a3.043,3.043,0,0,1,.878-2.306,3.144,3.144,0,0,1,2.269-.842,3.018,3.018,0,0,1,2.232.842,3.116,3.116,0,0,1,.842,2.306v20.934a18.56,18.56,0,0,1,6.368-5.307,18.313,18.313,0,0,1,8.564-2.013,18.77,18.77,0,0,1,9.955,2.672,19.094,19.094,0,0,1,6.917,7.283A21.279,21.279,0,0,1,47.39-22.246a20.5,20.5,0,0,1-2.672,10.467A19.763,19.763,0,0,1,37.472-4.5,20.3,20.3,0,0,1,27.042-1.824Zm0-5.636a13.908,13.908,0,0,0,7.32-1.94,14.069,14.069,0,0,0,5.087-5.27,15.228,15.228,0,0,0,1.866-7.576,15.285,15.285,0,0,0-1.866-7.539,13.722,13.722,0,0,0-5.087-5.27,14.113,14.113,0,0,0-7.32-1.9,14.03,14.03,0,0,0-7.21,1.9,13.382,13.382,0,0,0-5.087,5.27,15.529,15.529,0,0,0-1.83,7.539,15.471,15.471,0,0,0,1.83,7.576A13.711,13.711,0,0,0,19.832-9.4,13.826,13.826,0,0,0,27.042-7.46ZM76.888-1.824a21.247,21.247,0,0,1-10.613-2.6,18.874,18.874,0,0,1-7.246-7.21,20.864,20.864,0,0,1-2.635-10.54,21.784,21.784,0,0,1,2.489-10.577,18.709,18.709,0,0,1,6.844-7.21A19.057,19.057,0,0,1,75.79-42.594a18.192,18.192,0,0,1,9.735,2.525,16.9,16.9,0,0,1,6.331,6.99A22.446,22.446,0,0,1,94.089-22.9a2.656,2.656,0,0,1-.805,2.013,2.848,2.848,0,0,1-2.049.769h-30.6v-5.051H91.527l-3.074,2.2a16.615,16.615,0,0,0-1.537-7.246,12.071,12.071,0,0,0-4.355-5.05A12.16,12.16,0,0,0,75.79-37.1a13.293,13.293,0,0,0-7.246,1.94,13.021,13.021,0,0,0-4.758,5.307A16.957,16.957,0,0,0,62.1-22.173a15.143,15.143,0,0,0,1.9,7.649,14.09,14.09,0,0,0,5.233,5.27,14.917,14.917,0,0,0,7.649,1.94,15.831,15.831,0,0,0,5.087-.878,12.415,12.415,0,0,0,4.136-2.2,3.225,3.225,0,0,1,2.013-.769,2.814,2.814,0,0,1,1.94.622,2.953,2.953,0,0,1,1.061,2.086,2.351,2.351,0,0,1-.915,1.94,20.42,20.42,0,0,1-6.185,3.367A21.214,21.214,0,0,1,76.888-1.824Zm43.625,0a21.247,21.247,0,0,1-10.613-2.6,18.874,18.874,0,0,1-7.246-7.21,20.864,20.864,0,0,1-2.635-10.54,21.785,21.785,0,0,1,2.489-10.577,18.709,18.709,0,0,1,6.844-7.21,19.057,19.057,0,0,1,10.064-2.635,18.191,18.191,0,0,1,9.735,2.525,16.9,16.9,0,0,1,6.331,6.99A22.446,22.446,0,0,1,137.714-22.9a2.656,2.656,0,0,1-.805,2.013,2.848,2.848,0,0,1-2.049.769h-30.6v-5.051h30.889l-3.074,2.2a16.615,16.615,0,0,0-1.537-7.246,12.071,12.071,0,0,0-4.355-5.05,12.16,12.16,0,0,0-6.771-1.83,13.293,13.293,0,0,0-7.246,1.94,13.022,13.022,0,0,0-4.758,5.307,16.957,16.957,0,0,0-1.683,7.686,15.143,15.143,0,0,0,1.9,7.649,14.09,14.09,0,0,0,5.233,5.27,14.917,14.917,0,0,0,7.649,1.94,15.831,15.831,0,0,0,5.087-.878,12.415,12.415,0,0,0,4.136-2.2,3.225,3.225,0,0,1,2.013-.769,2.814,2.814,0,0,1,1.94.622,2.953,2.953,0,0,1,1.061,2.086,2.351,2.351,0,0,1-.915,1.94,20.421,20.421,0,0,1-6.185,3.367A21.214,21.214,0,0,1,120.513-1.824Z" transform="translate(12181.334 806.667)" fill="#f9ba0d"/>
    <g id="Group_1457" data-name="Group 1457" transform="translate(11845 709.427)">
      <path id="Polygon_130" data-name="Polygon 130" d="M77.539,0a4,4,0,0,1,3.484,2.036l24.37,43.225a4,4,0,0,1,0,3.929L81.023,92.415a4,4,0,0,1-3.484,2.036H28.962a4,4,0,0,1-3.484-2.036L1.108,49.19a4,4,0,0,1,0-3.929L25.478,2.036A4,4,0,0,1,28.962,0Z" transform="matrix(0.875, -0.485, 0.485, 0.875, 0, 51.633)" fill="#f9ba0d"/>
      <g id="Mask_Group_14" data-name="Mask Group 14" transform="translate(0 0)" clip-path="url(#clip-path)">
        <path id="Union_57" data-name="Union 57" d="M40.681,67.716a3.692,3.692,0,0,1-2.376-1.708l-22.15-36.27c-4.613,1.8-9.11.026-12.393-5.03C-.5,18.147-1.708,8.082,3.134,4.938s13.544,2.055,17.8,8.614c3.283,5.057,3.08,9.888-.446,13.368L44.617,61.908a3.7,3.7,0,0,1,.594,2.866,3.77,3.77,0,0,1-4.53,2.942Zm33.5-1.054a3.693,3.693,0,0,1-2.406-1.668L48.917,29C45.156,30.1,41.1,28.161,37.545,23.48a.987.987,0,0,1-.146-.149L28.805,10.59a1.281,1.281,0,1,1,2.124-1.432L38.09,19.775l2.124-1.432L33.053,7.726a1.281,1.281,0,0,1,2.124-1.433l7.161,10.617,2.123-1.432L37.3,4.861a1.281,1.281,0,0,1,2.124-1.433l7.161,10.617,2.124-1.432L41.546,2A1.281,1.281,0,1,1,43.67.565L52.263,13.3a1.208,1.208,0,0,1,.083.192c3.009,5.048,3.289,9.537.857,12.614L78.016,60.784a3.7,3.7,0,0,1,.644,2.856,3.773,3.773,0,0,1-4.48,3.022Z" transform="translate(41.447 56.116)" fill="#fff"/>
      </g>
    </g>
    <path id="Path_1549" data-name="Path 1549" d="M19.475-11.768V11.005H17.262V.356H3.758V11.005H1.513V-11.768H3.758V-1.633h13.5V-11.768ZM31.632,11.326a7.925,7.925,0,0,1-3.336-.69A8.2,8.2,0,0,1,25.682,8.76,8.514,8.514,0,0,1,23.966,6a9.058,9.058,0,0,1-.609-3.3,8.938,8.938,0,0,1,.625-3.336A8.741,8.741,0,0,1,25.714-3.4a8.412,8.412,0,0,1,2.614-1.892,7.7,7.7,0,0,1,3.3-.706,7.8,7.8,0,0,1,3.32.706A8.358,8.358,0,0,1,37.582-3.4,8.741,8.741,0,0,1,39.314-.638,8.938,8.938,0,0,1,39.939,2.7,9.058,9.058,0,0,1,39.33,6,8.514,8.514,0,0,1,37.614,8.76a8.149,8.149,0,0,1-2.63,1.876A8.034,8.034,0,0,1,31.632,11.326ZM25.57,2.73a6.975,6.975,0,0,0,.481,2.614,7.1,7.1,0,0,0,1.3,2.117,5.873,5.873,0,0,0,1.925,1.427,5.536,5.536,0,0,0,2.358.513,5.4,5.4,0,0,0,2.358-.529A6.261,6.261,0,0,0,35.93,7.429,6.878,6.878,0,0,0,37.245,5.3a7.1,7.1,0,0,0,.481-2.63A7.137,7.137,0,0,0,37.245.051,6.833,6.833,0,0,0,35.93-2.1a6.261,6.261,0,0,0-1.941-1.443,5.4,5.4,0,0,0-2.358-.529,5.292,5.292,0,0,0-2.342.529,6.206,6.206,0,0,0-1.925,1.459A7.035,7.035,0,0,0,26.051.083,7.225,7.225,0,0,0,25.57,2.73Zm42.885,8.275H66.273V1.671a7.819,7.819,0,0,0-.93-4.3,3.11,3.11,0,0,0-2.758-1.379,4.68,4.68,0,0,0-1.812.353,5.572,5.572,0,0,0-1.572.994,6.817,6.817,0,0,0-1.267,1.524A7.34,7.34,0,0,0,57.1.805v10.2H54.919V1.671a8.022,8.022,0,0,0-.9-4.33,3.085,3.085,0,0,0-2.758-1.347,4.919,4.919,0,0,0-3.368,1.315A7.323,7.323,0,0,0,45.777.773V11.005H43.6V-5.706h1.989v3.785a7.9,7.9,0,0,1,2.694-3,6.671,6.671,0,0,1,3.689-1.075,4.75,4.75,0,0,1,3.384,1.187A5.167,5.167,0,0,1,56.907-1.7q2.342-4.3,6.447-4.3a5.093,5.093,0,0,1,2.39.513,4.043,4.043,0,0,1,1.572,1.459,6.836,6.836,0,0,1,.866,2.277,14.832,14.832,0,0,1,.273,2.967Zm11.836.321a8.034,8.034,0,0,1-3.352-.69,8.214,8.214,0,0,1-2.646-1.892,8.787,8.787,0,0,1-1.748-2.775A9.024,9.024,0,0,1,71.919,2.6a8.815,8.815,0,0,1,.625-3.32,8.593,8.593,0,0,1,1.732-2.726,8.22,8.22,0,0,1,2.646-1.86,8.066,8.066,0,0,1,3.336-.69,8.034,8.034,0,0,1,3.352.69,7.969,7.969,0,0,1,2.614,1.876A8.75,8.75,0,0,1,87.924-.7a8.807,8.807,0,0,1,.609,3.272v.513a1.291,1.291,0,0,1-.032.353H74.2a7.035,7.035,0,0,0,.625,2.486,6.833,6.833,0,0,0,1.363,1.973,6.108,6.108,0,0,0,1.908,1.3,5.711,5.711,0,0,0,2.293.465,5.924,5.924,0,0,0,1.6-.225,6.484,6.484,0,0,0,1.475-.609,5.488,5.488,0,0,0,1.219-.946,4.064,4.064,0,0,0,.834-1.235l1.892.513A5.557,5.557,0,0,1,86.321,8.84a7.613,7.613,0,0,1-1.636,1.315,8.011,8.011,0,0,1-2.053.866A8.9,8.9,0,0,1,80.29,11.326Zm6.158-9.558a6.749,6.749,0,0,0-.625-2.454,6.679,6.679,0,0,0-1.347-1.908,5.958,5.958,0,0,0-1.892-1.251,5.887,5.887,0,0,0-2.293-.449,6.006,6.006,0,0,0-2.309.449,5.912,5.912,0,0,0-1.908,1.251A6.148,6.148,0,0,0,74.757-.67a7.286,7.286,0,0,0-.593,2.438Zm38.491,9.238h-2.181V1.671a7.819,7.819,0,0,0-.93-4.3,3.11,3.11,0,0,0-2.758-1.379,4.68,4.68,0,0,0-1.812.353,5.572,5.572,0,0,0-1.572.994,6.816,6.816,0,0,0-1.267,1.524,7.34,7.34,0,0,0-.834,1.941v10.2H111.4V1.671a8.022,8.022,0,0,0-.9-4.33,3.085,3.085,0,0,0-2.758-1.347,4.919,4.919,0,0,0-3.368,1.315A7.323,7.323,0,0,0,102.262.773V11.005h-2.181V-5.706h1.989v3.785a7.9,7.9,0,0,1,2.694-3,6.671,6.671,0,0,1,3.689-1.075,4.75,4.75,0,0,1,3.384,1.187A5.167,5.167,0,0,1,113.392-1.7q2.342-4.3,6.447-4.3a5.093,5.093,0,0,1,2.39.513A4.043,4.043,0,0,1,123.8-4.022a6.836,6.836,0,0,1,.866,2.277,14.831,14.831,0,0,1,.273,2.967Zm8.821.321a5.9,5.9,0,0,1-2.2-.4A5.545,5.545,0,0,1,129.8,9.818a4.984,4.984,0,0,1-1.588-3.689,4.115,4.115,0,0,1,.513-2.021,4.892,4.892,0,0,1,1.443-1.6,7.067,7.067,0,0,1,2.213-1.042,10.191,10.191,0,0,1,2.823-.369,15.417,15.417,0,0,1,2.6.225,11.261,11.261,0,0,1,2.342.642V.452a4.851,4.851,0,0,0-1.251-3.512,4.583,4.583,0,0,0-3.464-1.3,7.362,7.362,0,0,0-2.63.513,12.685,12.685,0,0,0-2.726,1.475l-.77-1.443a11.285,11.285,0,0,1,6.287-2.181,6.745,6.745,0,0,1,4.94,1.764,6.522,6.522,0,0,1,1.8,4.875V8.182q0,.9.8.9v1.925a5.2,5.2,0,0,1-.834.1,1.878,1.878,0,0,1-1.3-.417,1.569,1.569,0,0,1-.5-1.155l-.064-1.315a7.58,7.58,0,0,1-2.9,2.309A8.93,8.93,0,0,1,133.76,11.326Zm.513-1.668a7.541,7.541,0,0,0,3.127-.642,5.107,5.107,0,0,0,2.165-1.7A2,2,0,0,0,140,6.691a1.6,1.6,0,0,0,.144-.625V3.339a13.37,13.37,0,0,0-2.261-.642,12.659,12.659,0,0,0-2.39-.225,6.648,6.648,0,0,0-3.753.962A2.925,2.925,0,0,0,130.3,5.969a3.461,3.461,0,0,0,.3,1.443,3.657,3.657,0,0,0,.834,1.171,3.906,3.906,0,0,0,1.267.786A4.274,4.274,0,0,0,134.273,9.658Zm19.63,1.668A7.2,7.2,0,0,1,150.7,10.6,8.162,8.162,0,0,1,148.162,8.7a8.777,8.777,0,0,1-1.652-2.742,9.058,9.058,0,0,1-.593-3.256,9.731,9.731,0,0,1,.577-3.352,8.955,8.955,0,0,1,1.588-2.775,7.481,7.481,0,0,1,2.406-1.876,6.817,6.817,0,0,1,3.063-.69A6.539,6.539,0,0,1,157.3-4.888,8.375,8.375,0,0,1,159.87-2.21v-10.2h2.181V8.182q0,.9.77.9v1.925a4.139,4.139,0,0,1-.77.1,2,2,0,0,1-1.347-.5,1.533,1.533,0,0,1-.577-1.2V7.765a7.308,7.308,0,0,1-2.694,2.6A7.069,7.069,0,0,1,153.9,11.326Zm.481-1.925a5.2,5.2,0,0,0,1.716-.321,7.05,7.05,0,0,0,1.716-.882,5.909,5.909,0,0,0,1.363-1.315,3.557,3.557,0,0,0,.69-1.62V.1a5.734,5.734,0,0,0-.93-1.62,7.485,7.485,0,0,0-1.4-1.331,6.556,6.556,0,0,0-1.684-.9A5.224,5.224,0,0,0,154.1-4.07a5.128,5.128,0,0,0-2.438.577,6.165,6.165,0,0,0-1.876,1.524A6.8,6.8,0,0,0,148.579.2a7.678,7.678,0,0,0-.417,2.5,6.925,6.925,0,0,0,.481,2.566A6.877,6.877,0,0,0,149.958,7.4a6.361,6.361,0,0,0,1.973,1.459A5.608,5.608,0,0,0,154.385,9.4Zm19.823,1.925a8.034,8.034,0,0,1-3.352-.69,8.214,8.214,0,0,1-2.646-1.892,8.787,8.787,0,0,1-1.748-2.775,9.024,9.024,0,0,1-.625-3.368,8.815,8.815,0,0,1,.625-3.32,8.592,8.592,0,0,1,1.732-2.726,8.22,8.22,0,0,1,2.646-1.86,8.066,8.066,0,0,1,3.336-.69,8.034,8.034,0,0,1,3.352.69,7.969,7.969,0,0,1,2.614,1.876,8.75,8.75,0,0,1,1.7,2.726,8.807,8.807,0,0,1,.609,3.272v.513a1.291,1.291,0,0,1-.032.353H168.113a7.034,7.034,0,0,0,.625,2.486A6.833,6.833,0,0,0,170.1,7.894a6.108,6.108,0,0,0,1.908,1.3,5.711,5.711,0,0,0,2.293.465,5.924,5.924,0,0,0,1.6-.225,6.484,6.484,0,0,0,1.475-.609,5.487,5.487,0,0,0,1.219-.946,4.063,4.063,0,0,0,.834-1.235l1.892.513a5.557,5.557,0,0,1-1.091,1.684,7.613,7.613,0,0,1-1.636,1.315,8.012,8.012,0,0,1-2.053.866A8.9,8.9,0,0,1,174.207,11.326Zm6.158-9.558a6.748,6.748,0,0,0-.625-2.454,6.679,6.679,0,0,0-1.347-1.908A5.959,5.959,0,0,0,176.5-3.846a5.887,5.887,0,0,0-2.293-.449,6.006,6.006,0,0,0-2.309.449,5.912,5.912,0,0,0-1.908,1.251A6.148,6.148,0,0,0,168.674-.67a7.286,7.286,0,0,0-.593,2.438Zm33.808-7.474h2.149l-7.185,16.711h-1.8l-3.592-8.532-3.56,8.532h-1.8L191.207-5.706h2.117L199.419,8.76l3.175-7.634-2.855-6.8h1.828l2.181,5.453,2.181-5.453h1.86l-2.855,6.8,3.175,7.634Zm11.643,17.032a8.034,8.034,0,0,1-3.352-.69,8.214,8.214,0,0,1-2.646-1.892,8.787,8.787,0,0,1-1.748-2.775,9.024,9.024,0,0,1-.625-3.368,8.815,8.815,0,0,1,.625-3.32A8.593,8.593,0,0,1,219.8-3.445a8.22,8.22,0,0,1,2.646-1.86,8.066,8.066,0,0,1,3.336-.69,8.034,8.034,0,0,1,3.352.69,7.969,7.969,0,0,1,2.614,1.876,8.75,8.75,0,0,1,1.7,2.726,8.807,8.807,0,0,1,.609,3.272v.513a1.291,1.291,0,0,1-.032.353H219.723a7.034,7.034,0,0,0,.625,2.486,6.833,6.833,0,0,0,1.363,1.973,6.108,6.108,0,0,0,1.908,1.3,5.711,5.711,0,0,0,2.293.465,5.924,5.924,0,0,0,1.6-.225,6.484,6.484,0,0,0,1.475-.609,5.487,5.487,0,0,0,1.219-.946,4.063,4.063,0,0,0,.834-1.235l1.892.513a5.557,5.557,0,0,1-1.091,1.684,7.613,7.613,0,0,1-1.636,1.315,8.011,8.011,0,0,1-2.053.866A8.9,8.9,0,0,1,225.817,11.326Zm6.159-9.558a6.749,6.749,0,0,0-.625-2.454A6.68,6.68,0,0,0,230-2.595a5.958,5.958,0,0,0-1.892-1.251,5.887,5.887,0,0,0-2.293-.449,6.006,6.006,0,0,0-2.309.449A5.912,5.912,0,0,0,221.6-2.595,6.148,6.148,0,0,0,220.284-.67a7.286,7.286,0,0,0-.593,2.438Zm5.549-14.177h2.181V7.22a2.008,2.008,0,0,0,.513,1.459,1.917,1.917,0,0,0,1.443.529,4.337,4.337,0,0,0,.834-.1,5.507,5.507,0,0,0,.9-.257l.385,1.764a7.2,7.2,0,0,1-1.492.417,8.693,8.693,0,0,1-1.524.16,3.242,3.242,0,0,1-2.374-.85,3.2,3.2,0,0,1-.866-2.39Zm8.725,0h2.181V7.22a2.008,2.008,0,0,0,.513,1.459,1.917,1.917,0,0,0,1.443.529,4.337,4.337,0,0,0,.834-.1,5.507,5.507,0,0,0,.9-.257l.385,1.764a7.2,7.2,0,0,1-1.492.417,8.693,8.693,0,0,1-1.524.16,3.242,3.242,0,0,1-2.374-.85,3.2,3.2,0,0,1-.866-2.39Zm22.677,23.415h-2.181V1.671a8.143,8.143,0,0,0-.882-4.33,3.014,3.014,0,0,0-2.71-1.347,5.557,5.557,0,0,0-1.924.353,6.488,6.488,0,0,0-1.78.994,7.611,7.611,0,0,0-1.459,1.524,5.972,5.972,0,0,0-.93,1.908V11.005h-2.181V-5.706h1.989v3.785A7.851,7.851,0,0,1,259.8-4.872a8.047,8.047,0,0,1,4.154-1.123,4.921,4.921,0,0,1,2.342.513,4,4,0,0,1,1.54,1.443,6.649,6.649,0,0,1,.834,2.277,15.99,15.99,0,0,1,.257,2.983Zm11.868.321a8.034,8.034,0,0,1-3.352-.69A8.214,8.214,0,0,1,274.8,8.744a8.787,8.787,0,0,1-1.748-2.775,9.023,9.023,0,0,1-.626-3.368,8.814,8.814,0,0,1,.626-3.32,8.592,8.592,0,0,1,1.732-2.726,8.22,8.22,0,0,1,2.646-1.86,8.066,8.066,0,0,1,3.336-.69,8.034,8.034,0,0,1,3.352.69,7.969,7.969,0,0,1,2.614,1.876,8.75,8.75,0,0,1,1.7,2.726,8.807,8.807,0,0,1,.609,3.272v.513a1.291,1.291,0,0,1-.032.353H274.7a7.036,7.036,0,0,0,.625,2.486,6.833,6.833,0,0,0,1.363,1.973,6.107,6.107,0,0,0,1.909,1.3,5.711,5.711,0,0,0,2.293.465,5.924,5.924,0,0,0,1.6-.225,6.484,6.484,0,0,0,1.475-.609,5.489,5.489,0,0,0,1.219-.946,4.064,4.064,0,0,0,.834-1.235l1.892.513a5.557,5.557,0,0,1-1.091,1.684,7.615,7.615,0,0,1-1.636,1.315,8.012,8.012,0,0,1-2.053.866A8.9,8.9,0,0,1,280.794,11.326Zm6.159-9.558a6.75,6.75,0,0,0-.625-2.454,6.679,6.679,0,0,0-1.347-1.908,5.958,5.958,0,0,0-1.892-1.251,5.887,5.887,0,0,0-2.293-.449,6.006,6.006,0,0,0-2.309.449,5.912,5.912,0,0,0-1.909,1.251A6.148,6.148,0,0,0,275.261-.67a7.287,7.287,0,0,0-.593,2.438Zm11,9.558a11.63,11.63,0,0,1-3.817-.642,9.174,9.174,0,0,1-3.208-1.86l.994-1.475A10.875,10.875,0,0,0,294.8,9.081a8.424,8.424,0,0,0,3.127.577,5.646,5.646,0,0,0,3.224-.818,2.647,2.647,0,0,0,1.2-2.325,2.015,2.015,0,0,0-.321-1.171,2.777,2.777,0,0,0-.946-.818A7.387,7.387,0,0,0,299.51,3.9q-.946-.273-2.2-.561-1.443-.353-2.5-.706a7.651,7.651,0,0,1-1.748-.8A2.892,2.892,0,0,1,292.037.725,3.605,3.605,0,0,1,291.7-.927a4.753,4.753,0,0,1,.5-2.213,4.512,4.512,0,0,1,1.347-1.588,6.12,6.12,0,0,1,1.989-.946,8.894,8.894,0,0,1,2.422-.321,9.38,9.38,0,0,1,3.5.625,6.909,6.909,0,0,1,2.534,1.652l-1.059,1.283a5.868,5.868,0,0,0-2.261-1.443,8.1,8.1,0,0,0-2.775-.481,6.889,6.889,0,0,0-1.6.176,3.861,3.861,0,0,0-1.3.561,2.766,2.766,0,0,0-.882.978,2.892,2.892,0,0,0-.321,1.4,2.3,2.3,0,0,0,.225,1.091,1.916,1.916,0,0,0,.738.722,6.008,6.008,0,0,0,1.3.545q.786.241,1.909.5,1.6.385,2.823.77a8.866,8.866,0,0,1,2.037.9,3.538,3.538,0,0,1,1.235,1.251,3.6,3.6,0,0,1,.417,1.8A4.357,4.357,0,0,1,302.7,9.979,7.632,7.632,0,0,1,297.955,11.326Zm15.621,0a11.63,11.63,0,0,1-3.817-.642,9.173,9.173,0,0,1-3.208-1.86l.994-1.475a10.875,10.875,0,0,0,2.871,1.732,8.424,8.424,0,0,0,3.127.577,5.646,5.646,0,0,0,3.224-.818,2.647,2.647,0,0,0,1.2-2.325,2.016,2.016,0,0,0-.321-1.171,2.777,2.777,0,0,0-.946-.818,7.387,7.387,0,0,0-1.572-.625q-.946-.273-2.2-.561-1.443-.353-2.5-.706a7.65,7.65,0,0,1-1.748-.8A2.892,2.892,0,0,1,307.658.725a3.605,3.605,0,0,1-.337-1.652,4.754,4.754,0,0,1,.5-2.213,4.513,4.513,0,0,1,1.347-1.588,6.12,6.12,0,0,1,1.989-.946,8.894,8.894,0,0,1,2.422-.321,9.38,9.38,0,0,1,3.5.625,6.91,6.91,0,0,1,2.534,1.652l-1.059,1.283a5.869,5.869,0,0,0-2.261-1.443,8.1,8.1,0,0,0-2.775-.481,6.889,6.889,0,0,0-1.6.176,3.861,3.861,0,0,0-1.3.561,2.766,2.766,0,0,0-.882.978,2.892,2.892,0,0,0-.321,1.4,2.3,2.3,0,0,0,.225,1.091,1.916,1.916,0,0,0,.738.722,6.009,6.009,0,0,0,1.3.545q.786.241,1.909.5,1.6.385,2.823.77a8.865,8.865,0,0,1,2.037.9,3.538,3.538,0,0,1,1.235,1.251,3.6,3.6,0,0,1,.417,1.8,4.357,4.357,0,0,1-1.764,3.657A7.632,7.632,0,0,1,313.575,11.326Z" transform="translate(12052.003 841.013)" fill="#131111"/>
  </g>
</svg>
