<svg id="Group_1457" data-name="Group 1457" xmlns="http://www.w3.org/2000/svg" xmlns:xlink="http://www.w3.org/1999/xlink" width="119.07" height="115.85" viewBox="0 0 119.07 115.85">
  <defs>
    <clipPath id="clip-path">
      <path id="Polygon_131" data-name="Polygon 131" d="M64.022,0A7.547,7.547,0,0,1,70.6,3.841L89.524,37.412a7.547,7.547,0,0,1,0,7.413L70.6,78.4a7.547,7.547,0,0,1-6.574,3.841H26.472A7.547,7.547,0,0,1,19.9,78.4L.973,44.825a7.547,7.547,0,0,1,0-7.413L19.9,3.841A7.547,7.547,0,0,1,26.472,0Z" transform="translate(0 43.891) rotate(-28.999)" fill="#f9ba0d"/>
    </clipPath>
  </defs>
  <path id="Polygon_130" data-name="Polygon 130" d="M64.022,0A7.547,7.547,0,0,1,70.6,3.841L89.524,37.412a7.547,7.547,0,0,1,0,7.413L70.6,78.4a7.547,7.547,0,0,1-6.574,3.841H26.472A7.547,7.547,0,0,1,19.9,78.4L.973,44.825a7.547,7.547,0,0,1,0-7.413L19.9,3.841A7.547,7.547,0,0,1,26.472,0Z" transform="translate(0 43.891) rotate(-28.999)" fill="#f9ba0d"/>
  <g id="Mask_Group_14" data-name="Mask Group 14" transform="translate(0 0)" clip-path="url(#clip-path)">
    <path id="Union_57" data-name="Union 57" d="M41.082,59.613a3.215,3.215,0,0,1-2.065-1.487L19.729,26.545c-4.017,1.571-7.932.023-10.791-4.38C5.23,16.454,4.176,7.69,8.392,4.953s11.794,1.789,15.5,7.5c2.859,4.4,2.683,8.61-.388,11.64L44.512,54.556a3.217,3.217,0,0,1,.517,2.495,3.283,3.283,0,0,1-3.941,2.562ZM70.25,58.7a3.215,3.215,0,0,1-2.1-1.452L48.256,25.9c-3.275.964-6.808-.726-9.9-4.8a.86.86,0,0,1-.127-.13L30.745,9.873A1.115,1.115,0,1,1,32.59,8.627l6.239,9.248,1.845-1.247L34.443,7.38a1.115,1.115,0,0,1,1.845-1.248l6.236,9.244,1.845-1.247L38.14,4.886a1.115,1.115,0,0,1,1.845-1.248l6.236,9.244,1.845-1.247L41.837,2.391a1.115,1.115,0,1,1,1.845-1.247l7.483,11.093a1.051,1.051,0,0,1,.072.168c2.621,4.4,2.865,8.3.746,10.985l21.6,30.189a3.218,3.218,0,0,1,.561,2.486,3.286,3.286,0,0,1-3.9,2.631Z" transform="translate(29.448 47.684)" fill="#fff"/>
  </g>
</svg>
